<svg width="82" height="75" viewBox="0 0 82 75" fill="none" xmlns="http://www.w3.org/2000/svg">
<rect width="82" height="75" fill="white"/>
<path d="M18.1562 59H8.15625L8.21875 51.125H18.1562C20.4271 51.125 22.3438 50.6042 23.9062 49.5625C25.4688 48.5 26.6562 46.9375 27.4688 44.875C28.2812 42.7917 28.6875 40.2604 28.6875 37.2812V35.1875C28.6875 32.9375 28.4583 30.9583 28 29.25C27.5417 27.5208 26.8646 26.0729 25.9688 24.9062C25.0729 23.7396 23.9583 22.8646 22.625 22.2812C21.3125 21.6979 19.8021 21.4062 18.0938 21.4062H7.96875V13.5H18.0938C21.1771 13.5 23.9896 14.0208 26.5312 15.0625C29.0938 16.1042 31.3021 17.5938 33.1562 19.5312C35.0312 21.4688 36.4792 23.7604 37.5 26.4062C38.5208 29.0521 39.0312 32 39.0312 35.25V37.2812C39.0312 40.5104 38.5208 43.4583 37.5 46.125C36.4792 48.7708 35.0312 51.0625 33.1562 53C31.3021 54.9167 29.1042 56.3958 26.5625 57.4375C24.0208 58.4792 21.2188 59 18.1562 59ZM13.9375 13.5V59H3.75V13.5H13.9375Z" fill="#DC143C"/>
<rect width="10.8386" height="50.1832" transform="matrix(0.819891 0.57252 -0.473314 0.880894 70.6998 13)" fill="#DC143C"/>
<rect x="71.5789" y="13" width="10.4211" height="54" fill="#DC143C"/>
<rect x="28" y="15.16" width="10.4211" height="29.16" fill="#DC143C"/>
<rect width="10.7963" height="50.3566" transform="matrix(0.838874 -0.544326 0.446705 0.894681 28.9474 21.0367)" fill="#DC143C"/>
<path d="M28 58.6L38.4211 51.04V68.32H28V58.6Z" fill="black"/>
</svg>
